<?xml version="1.0" encoding="UTF-8" standalone="no"?>
<svg
   xmlns:dc="http://purl.org/dc/elements/1.1/"
   xmlns:cc="http://creativecommons.org/ns#"
   xmlns:rdf="http://www.w3.org/1999/02/22-rdf-syntax-ns#"
   xmlns:svg="http://www.w3.org/2000/svg"
   xmlns="http://www.w3.org/2000/svg"
   xmlns:xlink="http://www.w3.org/1999/xlink"
   xmlns:sodipodi="http://sodipodi.sourceforge.net/DTD/sodipodi-0.dtd"
   xmlns:inkscape="http://www.inkscape.org/namespaces/inkscape"
   height="660"
   width="600"
   version="1.0"
   id="svg2"
   sodipodi:version="0.32"
   inkscape:version="0.46"
   sodipodi:docname="blason_ville_fr_Nangeville_(Loiret).svg"
   sodipodi:docbase="D:\Mes documents\Renaud-Notre Lapin"
   inkscape:export-filename="/Users/olivier/Desktop/Blason Rouge/Blason_Vide_3D.png"
   inkscape:export-xdpi="144"
   inkscape:export-ydpi="144"
   inkscape:output_extension="org.inkscape.output.svg.inkscape">
  <metadata
     id="metadata49">
    <rdf:RDF>
      <cc:Work
         rdf:about="">
        <dc:format>image/svg+xml</dc:format>
        <dc:type
           rdf:resource="http://purl.org/dc/dcmitype/StillImage" />
        <dc:title>Gabarit d'un blason en pointe pour le projet Blasons de Wikipédia</dc:title>
        <dc:date>03-AUG-2006</dc:date>
        <dc:creator>
          <cc:Agent>
            <dc:title>Jérôme BLUM (wagner51)</dc:title>
          </cc:Agent>
        </dc:creator>
        <cc:license
           rdf:resource="http://web.resource.org/cc/PublicDomain" />
        <dc:language>fr</dc:language>
        <dc:subject>
          <rdf:Bag>
            <rdf:li>gabarit modèle blason projet wikipédia</rdf:li>
          </rdf:Bag>
        </dc:subject>
      </cc:Work>
      <cc:License
         rdf:about="http://web.resource.org/cc/PublicDomain">
        <cc:permits
           rdf:resource="http://web.resource.org/cc/Reproduction" />
        <cc:permits
           rdf:resource="http://web.resource.org/cc/Distribution" />
        <cc:permits
           rdf:resource="http://web.resource.org/cc/DerivativeWorks" />
      </cc:License>
    </rdf:RDF>
  </metadata>
  <sodipodi:namedview
     inkscape:window-height="975"
     inkscape:window-width="1280"
     inkscape:pageshadow="2"
     inkscape:pageopacity="0.0"
     guidetolerance="10.0"
     gridtolerance="10.0"
     objecttolerance="10.0"
     borderopacity="1.0"
     bordercolor="#666666"
     pagecolor="#ffffff"
     id="base"
     showgrid="false"
     height="660px"
     inkscape:zoom="1.1590904"
     inkscape:cx="300.00013"
     inkscape:cy="330.00014"
     inkscape:window-x="-4"
     inkscape:window-y="-4"
     inkscape:current-layer="layer3"
     inkscape:object-nodes="true" />
  <desc
     id="desc4">Flag of Canton of Valais (Wallis)</desc>
  <defs
     id="defs6">
    <linearGradient
       id="linearGradient2893">
      <stop
         style="stop-color:white;stop-opacity:0.3137255;"
         offset="0"
         id="stop2895" />
      <stop
         id="stop2897"
         offset="0.19"
         style="stop-color:white;stop-opacity:0.25098041;" />
      <stop
         style="stop-color:#6b6b6b;stop-opacity:0.1254902;"
         offset="0.60000002"
         id="stop2901" />
      <stop
         style="stop-color:black;stop-opacity:0.1254902;"
         offset="1"
         id="stop2899" />
    </linearGradient>
    <radialGradient
       inkscape:collect="always"
       xlink:href="#linearGradient2893"
       id="radialGradient3163"
       gradientUnits="userSpaceOnUse"
       gradientTransform="matrix(1.353218,0,0,1.348928,-77.62935,-85.74693)"
       cx="221.44487"
       cy="226.33101"
       fx="221.44487"
       fy="226.33101"
       r="300" />
  </defs>
  <g
     inkscape:groupmode="layer"
     id="layer3"
     inkscape:label="Fond écu"
     style="display:inline">
    <g
       style="display:inline"
       inkscape:label="Fond écu"
       id="g5012"
       transform="translate(0,1.0250031e-5)">
      <path
         sodipodi:nodetypes="cccccc"
         d="M 300,658.5 C 300,658.5 598.50001,546.17969 598.50001,260.72817 C 598.50001,-24.723354 598.50001,2.1764765 598.50001,2.1764765 L 1.5,2.1764765 L 1.5,260.72817 C 1.5,546.17969 300,658.5 300,658.5 z"
         style="fill:#fcef3c;fill-opacity:1;fill-rule:evenodd;stroke:none;stroke-width:1px;stroke-linecap:butt;stroke-linejoin:miter;stroke-opacity:1"
         id="path5014" />
    </g>
    <path
       style="fill:#2b5df2;fill-opacity:1;fill-rule:evenodd;stroke:#000000;stroke-width:3;stroke-linecap:butt;stroke-linejoin:miter;stroke-miterlimit:4;stroke-dasharray:none;stroke-opacity:1;display:inline"
       d="M 232.5,2.1875 L 232.5,212.5 L 1.5,212.5 L 1.5,260.71875 C 1.5,291.65479 5.02922,320.55332 11.28125,347.5 L 232.5,347.5 L 232.5,624.75 C 271.68346,647.83271 300,658.5 300,658.5 C 300,658.5 328.3165,647.83147 367.5,624.75 L 367.5,347.5 L 588.7188,347.5 C 594.9708,320.55351 598.5,291.65479 598.5,260.71875 C 598.5,207.47909 598.5,246.20858 598.5,212.5 L 367.5,212.5 L 367.5,2.1875 L 232.5,2.1875 z"
       id="path2855" />
  </g>
  <g
     inkscape:groupmode="layer"
     id="layer4"
     inkscape:label="Meubles"
     style="display:inline">
    <g
       style="display:inline"
       id="g19465"
       transform="translate(384.19248,362.25332)">
      <g
         transform="translate(-484.61116,-242.31771)"
         style="display:inline"
         inkscape:label="Fond écu"
         id="g19467">
        <g
           transform="translate(1.3295043e-4,-700.00028)"
           inkscape:label="Meubles"
           id="g2807" />
        <g
           transform="translate(1214.9342,19.818812)"
           inkscape:label="Meubles"
           id="g4626" />
        <path
           sodipodi:nodetypes="csscsscsssscsscsscsscscscscccc"
           transform="translate(244.89896,237.7291)"
           id="path3098"
           d="M 346.70315,102.0371 C 358.56544,122.84184 385.72999,109.12863 365.2085,88.974497 C 343.6826,67.833936 352.85744,53.49619 358.85863,47.24675 C 368.50046,37.20608 379.70971,29.895409 380.26678,18.400176 C 377.63163,7.7088815 362.21324,10.495105 364.11995,20.940126 C 366.96935,36.549206 364.89009,34.998503 362.12428,39.082625 C 358.84892,43.919171 354.89105,44.892395 351.60163,44.525375 C 355.76324,38.393357 355.83965,32.88382 353.05303,24.387201 C 349.50789,13.577791 357.69337,8.0895402 362.84998,6.244702 C 368.77697,4.1242494 379.25597,5.1450567 383.89528,11.687452 C 390.27587,20.685413 384.43215,32.173206 376.27543,39.808325 C 355.475,59.278601 360.21507,53.924718 359.76575,65.389249 C 359.78772,60.487636 359.03315,58.369289 362.66855,54.322324 C 373.03859,42.778283 378.91836,47.536593 384.0767,42.5297 C 386.59898,40.081471 389.82913,38.364227 386.07238,29.648526 C 391.96408,31.221572 394.4992,36.377404 390.608,45.4325 C 386.65667,54.627523 372.23195,56.38956 369.38128,59.402224 C 360.85055,68.417741 369.44024,71.033317 370.2884,77.000448 C 369.56702,73.311473 364.42537,69.596826 369.74413,65.933524 C 371.9765,64.395977 374.66822,62.884835 380.26678,61.397899 C 386.70455,59.688076 389.9551,56.605692 387.7052,51.056674 C 397.80651,57.673513 390.08224,65.082658 382.83646,68.03533 C 371.76009,72.548971 373.43481,79.264865 374.6426,88.611647 C 373.09272,81.288991 376.40878,76.780825 382.26245,74.823348 C 386.66678,73.35053 390.74752,76.538583 393.87365,83.350323 C 386.09799,76.435549 378.38957,79.463583 378.2711,90.244472 L 378.08968,106.75415 C 376.89572,112.74235 372.22515,122.06163 357.58865,117.63965 L 341.07898,108.93125 L 346.70315,102.0371 z"
           style="opacity:1;fill:#e20909;fill-opacity:1;stroke:#000000;stroke-width:1.32000005;stroke-miterlimit:4;stroke-dasharray:none;stroke-opacity:1" />
        <path
           style="fill:#e20909;fill-opacity:1;stroke:#000000;stroke-width:1.32000005;stroke-miterlimit:4;stroke-dasharray:none;stroke-opacity:1"
           d="M 539.41855,266.52646 C 539.34586,270.58276 540.10953,274.34036 543.8868,277.02167 C 547.84671,279.3142 551.98073,277.39603 556.04461,273.38472 C 560.33994,269.25869 563.7726,270.08786 567.03515,271.11075 C 567.57222,269.20295 566.91301,268.42762 567.0594,267.14994 C 562.18235,265.04464 556.71918,268.3121 551.31356,270.96397 C 545.90151,274.24841 542.35428,271.49634 539.41855,266.52646 z"
           id="path4241"
           sodipodi:nodetypes="ccccccc" />
        <path
           sodipodi:nodetypes="cscccsccccccccccccccccccccccccccccccccc"
           id="path4249"
           d="M 568.00425,341.65117 C 560.03044,344.71026 558.62336,350.84779 549.1341,353.13051 C 544.54328,354.23487 541.20231,353.05709 532.15098,363.50909 C 529.87082,364.04635 529.23713,365.40686 529.32046,367.12587 C 531.49987,373.42403 529.6649,377.83305 521.7724,379.39147 C 522.77322,382.72646 532.37318,382.9296 533.25173,377.97621 C 533.38906,377.20204 534.35248,370.2709 534.35248,370.2709 L 533.7235,378.76247 L 537.81202,383.32275 C 538.67029,387.14875 538.06502,389.78563 534.19522,389.77006 C 529.35276,389.92692 528.28431,393.43846 525.86092,395.74561 C 523.53438,395.94326 520.30702,397.94254 519.88537,394.33034 C 521.13356,391.02837 518.56295,391.92709 517.05485,391.65707 C 516.60552,393.65854 514.85916,395.10413 512.3373,396.21736 C 514.05854,398.55339 515.36534,401.26928 520.51439,400.46314 C 516.11998,401.77179 512.7296,399.81723 509.50678,397.31812 C 510.5945,400.39036 509.65471,403.01204 508.09152,405.49518 C 511.84573,407.06906 516.0197,405.28471 520.04262,404.70893 L 510.76478,406.91044 C 512.35824,408.69963 514.46127,409.80942 514.38158,413.8295 C 515.58239,415.0971 516.81954,415.89276 518.31285,413.35775 L 519.09913,411.62798 C 520.5022,411.2184 522.17038,411.73675 523.0304,409.42647 C 523.98432,409.90619 525.65262,409.13576 525.54641,411.47073 C 524.22953,412.72874 524.32228,413.98675 525.07464,415.24476 C 527.7347,412.95023 530.6112,413.03644 533.56624,413.98675 C 533.71862,413.14808 534.07629,412.30941 533.09448,411.47073 C 531.17894,410.19127 530.90526,408.63816 530.73572,407.0677 C 535.7647,407.78228 541.90138,410.83751 544.10204,399.67689 C 544.20813,403.17608 544.35936,406.08259 546.47989,405.95576 C 547.96256,406.53557 546.95861,408.2485 556.37558,406.86439 C 553.73835,405.78678 550.42656,405.77844 554.16616,399.51964 L 553.6944,395.27385 C 556.8473,394.46087 558.03676,392.46983 556.99668,389.14105 C 559.07172,388.27428 559.63572,387.07171 557.94018,385.36702 C 544.48524,376.44437 563.85633,364.05889 574.60883,363.35184 L 582.47136,358.3198 L 577.43935,341.17941 L 568.00425,341.65117 z"
           style="fill:#e20909;fill-opacity:1;stroke:#000000;stroke-width:1.32000005;stroke-miterlimit:4;stroke-dasharray:none;stroke-opacity:1" />
        <path
           sodipodi:nodetypes="cccccccccccccccsscscsccccccccccccccccccccccccccccccccccccccccccccsscccccscccccccccccccccccc"
           id="path4245"
           d="M 503.83263,250.73842 C 501.86037,251.19569 501.6369,252.39982 501.71517,253.73592 C 502.3156,254.69854 501.58814,256.27281 504.16263,256.95342 C 503.85854,260.44509 506.96701,260.86149 508.2739,262.74217 L 502.7189,258.41092 C 503.2498,255.84146 501.64174,255.4079 500.4914,254.51967 C 499.58289,256.22617 499.84596,259.35188 496.49017,258.06717 C 494.25414,260.53551 495.55504,262.89987 497.37017,263.18217 C 499.58474,264.26262 500.26322,262.58365 501.0414,261.07842 C 500.8434,262.0545 499.78357,263.15265 501.49517,263.85592 C 503.87746,265.94244 507.3891,267.1844 505.2764,272.64217 C 503.04406,272.12127 499.30987,272.66295 501.0414,276.07967 C 502.78437,276.71519 506.21065,276.32955 504.93263,281.08467 C 506.03844,282.17191 506.772,281.78152 507.60017,281.75842 C 509.38996,280.49752 509.31278,278.81404 509.11263,277.11092 C 509.86476,281.64955 512.74267,285.07362 510.5014,287.20342 C 507.17047,290.36866 508.67892,292.82689 509.71763,295.43967 C 512.19025,301.65936 510.33768,303.87572 504.38263,300.21092 C 504.84736,305.39783 513.36791,308.58456 515.16263,300.99467 C 516.1833,296.67845 515.44119,293.13733 516.73017,289.87092 C 515.33524,293.9671 517.37803,296.95831 519.94763,299.99092 C 523.98432,304.75496 521.14636,305.51433 518.9439,306.54967 C 520.79304,307.03354 523.13371,307.27446 522.72517,308.88717 C 525.01264,310.00584 527.18347,310.65617 529.28474,311.02792 L 532.94452,320.88001 C 529.64672,323.97496 525.19916,327.13545 519.72763,330.35092 C 517.38736,336.77486 503.31646,344.73959 501.0414,338.24342 C 500.58222,336.13222 499.81763,335.23247 497.04017,337.12967 C 496.77138,338.54739 497.26189,339.888 494.48263,341.58467 L 495.1564,343.24842 C 497.62612,344.29608 499.61822,344.39013 501.82517,344.91217 C 498.60582,344.53077 495.63349,345.4151 492.14517,343.68842 L 491.37517,345.24217 C 494.66312,347.46604 492.60295,349.7008 492.3789,351.92467 C 493.75029,352.32907 495.11869,353.59428 496.49017,350.92092 L 500.1614,350.24717 C 496.67009,351.638 495.80989,352.70186 494.59263,353.80842 C 497.3263,356.45777 496.17399,358.78668 495.4864,361.15092 C 497.8943,361.40138 500.16232,361.34835 500.8214,357.80967 C 502.26689,356.07779 503.72091,354.635 505.1664,354.37217 C 506.66504,354.92174 509.88905,354.2438 506.50017,358.13967 C 503.86198,359.98255 504.63633,361.19716 506.72017,362.15467 C 508.94406,360.60201 511.16501,359.68989 513.3889,361.37092 C 516.71917,360.018 516.28678,358.01051 514.17263,354.13842 C 518.08449,354.4778 518.79254,353.32281 520.38763,351.92467 C 520.38446,353.43585 520.54211,354.89945 519.39763,356.69592 C 521.61782,356.18534 526.32204,356.83126 525.99763,351.63592 L 526.2864,352.80467 L 528.7339,353.14842 C 530.21164,351.25813 528.94787,349.35996 528.8439,347.46967 C 529.16686,349.22362 529.38286,351.00711 530.8514,352.47467 C 533.52972,352.30545 536.33728,351.34372 538.7439,352.80467 L 537.19017,347.79967 C 537.73502,346.19932 537.59,345.16359 536.99763,344.38967 C 538.28762,344.80648 539.82137,344.58457 541.3014,342.35467 C 543.26582,346.74774 545.22202,346.88464 547.1864,347.24967 L 547.0214,343.20717 C 548.65758,348.89431 555.30788,343.60121 555.20263,343.13842 C 546.76809,341.82677 552.12175,336.11532 555.78017,332.64717 C 562.43205,338.95663 570.35874,341.17617 575.47017,351.95217 C 575.36352,356.17352 574.96615,360.54177 574.3839,365.00092 C 574.26079,367.93623 575.97982,368.81363 577.69763,369.70342 C 574.63804,370.43469 571.12209,370.46451 572.72017,378.28342 C 573.80306,383.10493 570.26845,384.95994 565.5289,386.03842 C 568.6584,388.16735 576.5729,391.75329 577.97263,376.89467 C 585.71454,385.03481 596.6424,392.10325 599.45171,397.62501 L 592.05567,406.16041 C 590.59741,406.5661 588.91635,406.94488 586.99263,407.29592 C 587.56533,410.15789 585.44967,412.16443 583.93004,414.81717 C 598.73848,399.04336 610.04851,385.7859 620.15763,372.19217 C 617.1189,371.63832 614.0121,373.26119 613.97017,377.55467 C 613.31004,371.56743 610.19722,375.11905 608.4289,373.85592 C 606.46514,369.5285 602.43641,367.12941 602.00763,363.88717 C 601.46885,359.81229 600.84009,355.09225 600.1239,349.77967 C 596.55414,346.00414 593.18932,342.04591 592.0939,336.20842 C 582.80273,328.0234 583.3456,315.90874 579.6364,305.49092 L 538.9089,288.81217 C 531.34618,278.43851 525.58869,278.7825 518.9439,266.74342 C 517.28079,264.8769 515.3975,260.62721 520.38763,258.41092 L 519.28763,254.51967 C 517.69263,253.94532 516.09763,255.3276 514.50263,252.18217 L 512.9489,251.17842 C 511.78629,251.17655 511.1383,251.95926 511.1614,253.73592 C 513.7218,257.31572 511.33084,257.09323 513.7189,263.74592 C 512.25238,259.70589 512.03836,258.77674 509.82763,256.29342 C 510.35413,254.94434 511.2036,253.74683 510.6114,251.83842 C 509.66923,250.55308 509.17172,251.07641 508.4939,250.84842 C 506.13198,253.42836 505.05077,251.87586 503.83263,250.73842 z M 575.4839,348.39092 C 575.49882,349.2753 575.4978,350.17338 575.4839,351.07217 L 575.4839,348.39092 z"
           style="fill:#e20909;fill-opacity:1;stroke:#000000;stroke-width:1.32000005;stroke-miterlimit:4;stroke-dasharray:none;stroke-opacity:1" />
        <path
           sodipodi:nodetypes="cccccc"
           id="path4257"
           d="M 570.20579,344.61748 C 570.25908,349.38572 572.30314,350.94187 572.40729,354.70302 L 576.39567,355.35348 C 573.12145,354.79642 570.70304,355.08674 570.67752,357.84805 C 570.553,360.45849 572.88007,361.10059 575.23781,360.52132 C 578.11484,350.14924 571.98995,344.00838 570.20579,344.61748 z"
           style="fill:#e20909;fill-opacity:1;stroke:#000000;stroke-width:1.32000005;stroke-miterlimit:4;stroke-dasharray:none;stroke-opacity:1" />
        <path
           sodipodi:nodetypes="cc"
           id="path4247"
           d="M 607.08122,378.36934 C 609.26732,379.33763 612.5755,378.67383 612.66364,382.69375"
           style="fill:#e20909;fill-opacity:1;stroke:#000000;stroke-width:1.32000005;stroke-miterlimit:4;stroke-dasharray:none;stroke-opacity:1" />
        <g
           transform="matrix(0.44,0,0,0.44,1353.7889,205.51467)"
           id="g4293">
          <path
             style="opacity:1;fill:#e20909;fill-opacity:1;stroke:#000000;stroke-width:3;stroke-miterlimit:4;stroke-dasharray:none;stroke-opacity:1"
             d="M -1928.9624,172.15256 C -1940.0798,177.46283 -1950.8781,172.64593 -1948.7149,158.57266 C -1943.4313,162.73376 -1938.5101,166.60124 -1935.3408,161.24749 C -1930.7654,161.45355 -1928.0637,164.2828 -1928.9624,172.15256 z"
             id="path4261"
             sodipodi:nodetypes="cccc" />
          <path
             style="opacity:1;fill:#e20909;fill-opacity:1;stroke:#000000;stroke-width:3;stroke-miterlimit:4;stroke-dasharray:none;stroke-opacity:1"
             d="M -1949.1264,119.68479 C -1951.9721,113.15856 -1958.3269,118.03709 -1963.1178,117.83298 C -1956.4709,104.82487 -1948.4347,102.65259 -1939.0444,111.04303 C -1940.6803,116.3383 -1942.1516,121.86395 -1949.1264,119.68479 z"
             id="path4263"
             sodipodi:nodetypes="cccc" />
          <path
             style="opacity:1;fill:#e20909;fill-opacity:1;stroke:#000000;stroke-width:3;stroke-miterlimit:4;stroke-dasharray:none;stroke-opacity:1"
             d="M -1944.8056,98.286163 C -1939.6551,98.845052 -1929.9172,92.850417 -1931.6372,103.22431 C -1927.741,108.12426 -1923.5308,107.37284 -1919.0861,102.40128 C -1923.9617,80.076615 -1941.3388,89.637613 -1944.8056,98.286163 z"
             id="path4265"
             sodipodi:nodetypes="cccc" />
          <path
             style="opacity:1;fill:#e20909;fill-opacity:1;stroke:#000000;stroke-width:3;stroke-miterlimit:4;stroke-dasharray:none;stroke-opacity:1"
             d="M -1909.2098,105.28187 C -1906.3539,98.192466 -1909.2889,96.425835 -1913.1192,93.965288 L -1906.7407,94.3768 C -1895.5859,94.769369 -1895.1895,101.88601 -1897.0702,110.42577 C -1902.7192,113.11794 -1905.614,108.23611 -1909.2098,105.28187 z"
             id="path4267"
             sodipodi:nodetypes="ccccc" />
        </g>
        <g
           transform="matrix(0.44,0,0,0.44,1353.7889,205.51467)"
           id="g4299">
          <path
             style="opacity:1;fill:#e20909;fill-opacity:1;stroke:#000000;stroke-width:3;stroke-miterlimit:4;stroke-dasharray:none;stroke-opacity:1"
             d="M -1951.8013,309.18605 C -1956.5086,305.12227 -1961.9093,304.06344 -1968.2617,307.12849 C -1968.3074,294.3535 -1957.3044,291.11602 -1946.0401,299.30976 C -1947.1757,303.38662 -1948.5062,307.26862 -1951.8013,309.18605 z"
             id="path4269"
             sodipodi:nodetypes="cccc" />
          <path
             style="opacity:1;fill:#e20909;fill-opacity:1;stroke:#000000;stroke-width:3;stroke-miterlimit:4;stroke-dasharray:none;stroke-opacity:1"
             d="M -1972.9941,333.87677 C -1975.7436,322.91527 -1972.553,316.25523 -1959.4142,316.79902 C -1957.052,320.20074 -1953.5486,322.56494 -1956.9452,331.20194 C -1963.2108,326.59802 -1968.3699,328.63245 -1972.9941,333.87677 z"
             id="path4271"
             sodipodi:nodetypes="cccc" />
          <path
             style="opacity:1;fill:#e20909;fill-opacity:1;stroke:#000000;stroke-width:3;stroke-miterlimit:4;stroke-dasharray:none;stroke-opacity:1"
             d="M -1953.0358,335.72857 C -1949.0583,341.28398 -1946.4465,346.83939 -1949.5379,352.3948 C -1955.9735,347.97425 -1958.5145,352.44434 -1956.3279,358.77324 C -1971.177,353.66724 -1966.6996,338.0241 -1953.0358,335.72857 z"
             id="path4273"
             sodipodi:nodetypes="cccc" />
          <path
             style="opacity:1;fill:#e20909;fill-opacity:1;stroke:#000000;stroke-width:3;stroke-miterlimit:4;stroke-dasharray:none;stroke-opacity:1"
             d="M -1923.4069,354.86388 C -1918.9872,352.084 -1914.9341,352.23741 -1911.0616,353.8351 C -1915.8708,371.74046 -1929.3261,366.78279 -1933.489,361.85957 C -1929.9946,358.80888 -1919.4111,359.91194 -1923.4069,354.86388 z"
             id="path4275"
             sodipodi:nodetypes="cccc" />
        </g>
        <g
           transform="matrix(0.44,0,0,0.44,1353.7889,205.51467)"
           id="g4305">
          <path
             style="opacity:1;fill:#e20909;fill-opacity:1;stroke:#000000;stroke-width:3;stroke-miterlimit:4;stroke-dasharray:none;stroke-opacity:1"
             d="M -1900.1565,424.20364 C -1907.6793,414.06237 -1922.8785,416.03889 -1926.699,429.5533 C -1921.2163,430.14989 -1911.3165,422.28034 -1911.6788,434.07993 L -1900.1565,424.20364 z"
             id="path4277"
             sodipodi:nodetypes="cccc" />
          <path
             style="opacity:1;fill:#e20909;fill-opacity:1;stroke:#000000;stroke-width:3;stroke-miterlimit:4;stroke-dasharray:none;stroke-opacity:1"
             d="M -1919.4976,452.39221 C -1925.5134,445.33492 -1928.6614,449.27075 -1931.4314,454.65553 C -1938.0171,441.50903 -1933.073,436.049 -1918.263,437.16627 C -1916.4965,441.30814 -1917.439,446.61102 -1919.4976,452.39221 z"
             id="path4279"
             sodipodi:nodetypes="cccc" />
          <path
             style="opacity:1;fill:#e20909;fill-opacity:1;stroke:#000000;stroke-width:3;stroke-miterlimit:4;stroke-dasharray:none;stroke-opacity:1"
             d="M -1913.3249,459.79943 C -1923.855,462.2653 -1926.5825,468.86194 -1918.4688,481.19805 C -1916.7098,476.04477 -1914.9644,470.87335 -1908.3868,472.14479 C -1906.9353,468.02967 -1908.1969,463.91455 -1913.3249,459.79943 z"
             id="path4281"
             sodipodi:nodetypes="cccc" />
          <path
             style="opacity:1;fill:#e20909;fill-opacity:1;stroke:#000000;stroke-width:3;stroke-miterlimit:4;stroke-dasharray:none;stroke-opacity:1"
             d="M -1880.8155,475.43688 C -1878.7554,480.68555 -1880.8876,483.92161 -1884.7248,485.31317 C -1876.7601,491.33601 -1866.4216,487.04018 -1867.6471,473.79083 C -1871.8041,472.2477 -1876.1124,472.06508 -1880.8155,475.43688 z"
             id="path4283"
             sodipodi:nodetypes="cccc" />
        </g>
        <g
           transform="matrix(0.44,0,0,0.44,1353.7889,205.51467)"
           id="g4311">
          <path
             style="opacity:1;fill:#e20909;fill-opacity:1;stroke:#000000;stroke-width:3;stroke-miterlimit:4;stroke-dasharray:none;stroke-opacity:1"
             d="M -1742.1359,459.38792 L -1744.3992,473.37932 C -1749.3007,467.72844 -1753.3998,476.52197 -1757.9791,476.67142 C -1763.9033,468.37853 -1754.0825,457.49611 -1742.1359,459.38792 z"
             id="path4285"
             sodipodi:nodetypes="cccc" />
        </g>
        <g
           transform="matrix(0.44,0,0,0.44,1353.7889,205.51467)"
           id="g4317">
          <path
             id="path4235"
             d="M -1807.179,161.61985 L -1810.9576,153.59021 L -1816.3894,157.1327 L -1816.1533,161.61985 L -1807.179,161.61985 z"
             style="opacity:1;fill:#e20909;fill-opacity:1;stroke:#000000;stroke-width:3;stroke-miterlimit:4;stroke-dasharray:none;stroke-opacity:1" />
          <path
             style="opacity:1;fill:#e20909;fill-opacity:1;stroke:#000000;stroke-width:3;stroke-miterlimit:4;stroke-dasharray:none;stroke-opacity:1"
             d="M -1823.2382,140.83725 L -1816.3894,140.36492 L -1817.0979,145.3244 L -1823.0021,148.15839 L -1823.2382,140.83725 z"
             id="path4239" />
          <path
             style="opacity:1;fill:#e20909;fill-opacity:1;stroke:#000000;stroke-width:3;stroke-miterlimit:4;stroke-dasharray:none;stroke-opacity:1"
             d="M -1789.0408,133.00808 C -1788.3881,128.82079 -1803.1729,130.03887 -1808.8457,135.51214 C -1811.6939,138.26018 -1826.8155,144.04947 -1832.5205,135.96743 L -1833.4311,126.63409 C -1836.6647,123.51217 -1839.9443,120.42559 -1835.7075,112.74791 L -1820.2278,107.2845 L -1820.2278,97.951165 C -1814.6554,95.874361 -1808.1889,95.055776 -1803.1546,90.211327 C -1799.0384,86.907045 -1793.3827,85.398697 -1785.6262,86.341408 C -1775.2133,88.474656 -1757.9006,85.673271 -1752.7428,97.401853 C -1757.665,100.14546 -1766.6764,96.868945 -1767.131,106.3138 C -1764.3003,95.934 -1748.3762,101.10017 -1737.9127,98.539141 C -1735.2669,101.19252 -1744.9687,107.76533 -1756.2603,109.10564 C -1737.5742,106.90558 -1744.2979,117.47315 -1741.6912,123.21946 C -1738.46,125.84287 -1737.4644,132.29867 -1726.2115,121.17068 C -1729.8295,126.5361 -1725.5939,136.60067 -1740.553,137.10564 C -1731.9381,138.06286 -1731.588,152.21507 -1731.9026,153.95117 C -1732.887,159.38296 -1720.6607,173.58132 -1716.4229,165.10564 C -1723.8568,175.53659 -1729.1577,172.45828 -1734.862,171.93491 C -1716.3397,185.1112 -1747.6784,216.81711 -1727.1221,226.56906 C -1732.6347,227.72027 -1736.9819,232.4723 -1744.8782,221.33329 C -1741.8848,227.71356 -1735.4999,232.49786 -1742.1465,243.41459 C -1751.1027,260.66299 -1736.1436,256.13386 -1730.5368,255.47964 C -1731.729,260.24667 -1759.62,280.16704 -1756.488,235.67476 C -1758.8624,251.30467 -1753.9921,265.66144 -1766.7319,275.51216 C -1776.4575,282.82965 -1772.1228,287.33506 -1766.9595,291.67476 C -1799.0688,286.90053 -1785.5006,264.83465 -1784.0327,248.87801 C -1785.7605,261.32343 -1789.6243,272.84004 -1801.1059,276.42273 C -1816.1146,284.02747 -1806.4765,299.03785 -1801.7888,306.24387 C -1807.9482,309.69539 -1837.5995,293.05162 -1818.4067,261.62597 C -1832.501,279.53631 -1835.0654,300.8674 -1854.2997,303.14926 C -1876.1022,305.73578 -1890.2868,285.63464 -1866.8945,275.7398 C -1873.3912,284.02605 -1870.8826,287.22144 -1865.301,286.89427 C -1857.7583,286.45214 -1849.8025,280.21625 -1849.8213,269.59345 C -1849.8663,244.1917 -1837.3943,245.27392 -1830.4717,243.41459 C -1863.1023,246.75714 -1854.2745,279.21257 -1894.4392,264.35768 C -1910.9478,258.25198 -1912.4974,242.67685 -1901.4961,226.79671 C -1899.4399,236.40538 -1901.2466,257.37662 -1881.6912,241.8211 C -1866.8094,229.98325 -1855.1659,221.94151 -1838.8945,222.01622 C -1859.2716,222.1099 -1883.9748,225.616 -1881.236,198.56906 C -1860.7285,202.65415 -1852.6704,199.15873 -1838.2116,198.56906 C -1866.6877,200.1319 -1872.0228,169.81372 -1845.7238,164.19507 C -1861.3981,184.92688 -1849.6259,192.86097 -1821.8213,181.49589 C -1821.8213,181.49589 -1811.3181,181.08264 -1808.3904,183.77231 C -1800.9586,190.59997 -1781.2273,166.48341 -1782.6668,163.2845 C -1800.0701,184.96106 -1801.0975,176.04896 -1810.4392,178.08125 C -1815.5524,174.5367 -1816.6084,170.07528 -1816.1303,162.37394 C -1808.6015,164.94082 -1803.5445,163.80001 -1798.3742,162.82922 C -1793.5921,158.76233 -1789.663,154.52484 -1787.9026,149.85361 C -1787.5143,144.23843 -1787.617,138.62326 -1789.0408,133.00808 z"
             id="path4227"
             sodipodi:nodetypes="csccccccccccccccscccccccccccccscsscscscccccscccccc" />
        </g>
        <path
           id="path4237"
           style="fill:#000000;stroke:#000000;stroke-width:1.32000005"
           d="M 555.56171,252.79403 C 556.30971,251.36403 562.20571,251.74683 562.16171,251.95803 C 563.92171,252.53003 564.05371,253.74443 564.36171,254.88843 L 564.58171,256.24803 L 563.83371,255.41203 C 563.21771,256.00163 562.33771,256.01923 561.54571,256.14243 L 560.62171,256.24803 C 559.43371,255.40763 558.86171,254.23283 558.42171,253.00523 C 557.14571,253.00523 556.44171,252.88203 555.56171,252.79403 L 555.56171,252.79403 z" />
      </g>
      <g
         transform="translate(-484.61116,-242.31771)"
         inkscape:label="Meubles"
         id="g19502" />
      <g
         transform="translate(-484.61116,-242.31771)"
         inkscape:label="Reflet final"
         id="g19504" />
      <g
         transform="translate(-484.61116,-242.31771)"
         inkscape:label="Contour final"
         id="g19506" />
    </g>
    <g
       style="display:inline"
       transform="translate(401.179,14.25332)"
       id="g19508">
      <g
         id="g19510"
         inkscape:label="Fond écu"
         style="display:inline"
         transform="translate(-484.61116,-242.31771)">
        <g
           id="g19512"
           inkscape:label="Meubles"
           transform="translate(1.3295043e-4,-700.00028)" />
        <g
           id="g19514"
           inkscape:label="Meubles"
           transform="translate(1214.9342,19.818812)" />
        <path
           style="opacity:1;fill:#e20909;fill-opacity:1;stroke:#000000;stroke-width:1.32000005;stroke-miterlimit:4;stroke-dasharray:none;stroke-opacity:1"
           d="M 346.70315,102.0371 C 358.56544,122.84184 385.72999,109.12863 365.2085,88.974497 C 343.6826,67.833936 352.85744,53.49619 358.85863,47.24675 C 368.50046,37.20608 379.70971,29.895409 380.26678,18.400176 C 377.63163,7.7088815 362.21324,10.495105 364.11995,20.940126 C 366.96935,36.549206 364.89009,34.998503 362.12428,39.082625 C 358.84892,43.919171 354.89105,44.892395 351.60163,44.525375 C 355.76324,38.393357 355.83965,32.88382 353.05303,24.387201 C 349.50789,13.577791 357.69337,8.0895402 362.84998,6.244702 C 368.77697,4.1242494 379.25597,5.1450567 383.89528,11.687452 C 390.27587,20.685413 384.43215,32.173206 376.27543,39.808325 C 355.475,59.278601 360.21507,53.924718 359.76575,65.389249 C 359.78772,60.487636 359.03315,58.369289 362.66855,54.322324 C 373.03859,42.778283 378.91836,47.536593 384.0767,42.5297 C 386.59898,40.081471 389.82913,38.364227 386.07238,29.648526 C 391.96408,31.221572 394.4992,36.377404 390.608,45.4325 C 386.65667,54.627523 372.23195,56.38956 369.38128,59.402224 C 360.85055,68.417741 369.44024,71.033317 370.2884,77.000448 C 369.56702,73.311473 364.42537,69.596826 369.74413,65.933524 C 371.9765,64.395977 374.66822,62.884835 380.26678,61.397899 C 386.70455,59.688076 389.9551,56.605692 387.7052,51.056674 C 397.80651,57.673513 390.08224,65.082658 382.83646,68.03533 C 371.76009,72.548971 373.43481,79.264865 374.6426,88.611647 C 373.09272,81.288991 376.40878,76.780825 382.26245,74.823348 C 386.66678,73.35053 390.74752,76.538583 393.87365,83.350323 C 386.09799,76.435549 378.38957,79.463583 378.2711,90.244472 L 378.08968,106.75415 C 376.89572,112.74235 372.22515,122.06163 357.58865,117.63965 L 341.07898,108.93125 L 346.70315,102.0371 z"
           id="path19516"
           transform="translate(244.89896,237.7291)"
           sodipodi:nodetypes="csscsscsssscsscsscsscscscscccc" />
        <path
           sodipodi:nodetypes="ccccccc"
           id="path19518"
           d="M 539.41855,266.52646 C 539.34586,270.58276 540.10953,274.34036 543.8868,277.02167 C 547.84671,279.3142 551.98073,277.39603 556.04461,273.38472 C 560.33994,269.25869 563.7726,270.08786 567.03515,271.11075 C 567.57222,269.20295 566.91301,268.42762 567.0594,267.14994 C 562.18235,265.04464 556.71918,268.3121 551.31356,270.96397 C 545.90151,274.24841 542.35428,271.49634 539.41855,266.52646 z"
           style="fill:#e20909;fill-opacity:1;stroke:#000000;stroke-width:1.32000005;stroke-miterlimit:4;stroke-dasharray:none;stroke-opacity:1" />
        <path
           style="fill:#e20909;fill-opacity:1;stroke:#000000;stroke-width:1.32000005;stroke-miterlimit:4;stroke-dasharray:none;stroke-opacity:1"
           d="M 568.00425,341.65117 C 560.03044,344.71026 558.62336,350.84779 549.1341,353.13051 C 544.54328,354.23487 541.20231,353.05709 532.15098,363.50909 C 529.87082,364.04635 529.23713,365.40686 529.32046,367.12587 C 531.49987,373.42403 529.6649,377.83305 521.7724,379.39147 C 522.77322,382.72646 532.37318,382.9296 533.25173,377.97621 C 533.38906,377.20204 534.35248,370.2709 534.35248,370.2709 L 533.7235,378.76247 L 537.81202,383.32275 C 538.67029,387.14875 538.06502,389.78563 534.19522,389.77006 C 529.35276,389.92692 528.28431,393.43846 525.86092,395.74561 C 523.53438,395.94326 520.30702,397.94254 519.88537,394.33034 C 521.13356,391.02837 518.56295,391.92709 517.05485,391.65707 C 516.60552,393.65854 514.85916,395.10413 512.3373,396.21736 C 514.05854,398.55339 515.36534,401.26928 520.51439,400.46314 C 516.11998,401.77179 512.7296,399.81723 509.50678,397.31812 C 510.5945,400.39036 509.65471,403.01204 508.09152,405.49518 C 511.84573,407.06906 516.0197,405.28471 520.04262,404.70893 L 510.76478,406.91044 C 512.35824,408.69963 514.46127,409.80942 514.38158,413.8295 C 515.58239,415.0971 516.81954,415.89276 518.31285,413.35775 L 519.09913,411.62798 C 520.5022,411.2184 522.17038,411.73675 523.0304,409.42647 C 523.98432,409.90619 525.65262,409.13576 525.54641,411.47073 C 524.22953,412.72874 524.32228,413.98675 525.07464,415.24476 C 527.7347,412.95023 530.6112,413.03644 533.56624,413.98675 C 533.71862,413.14808 534.07629,412.30941 533.09448,411.47073 C 531.17894,410.19127 530.90526,408.63816 530.73572,407.0677 C 535.7647,407.78228 541.90138,410.83751 544.10204,399.67689 C 544.20813,403.17608 544.35936,406.08259 546.47989,405.95576 C 547.96256,406.53557 546.95861,408.2485 556.37558,406.86439 C 553.73835,405.78678 550.42656,405.77844 554.16616,399.51964 L 553.6944,395.27385 C 556.8473,394.46087 558.03676,392.46983 556.99668,389.14105 C 559.07172,388.27428 559.63572,387.07171 557.94018,385.36702 C 544.48524,376.44437 563.85633,364.05889 574.60883,363.35184 L 582.47136,358.3198 L 577.43935,341.17941 L 568.00425,341.65117 z"
           id="path19520"
           sodipodi:nodetypes="cscccsccccccccccccccccccccccccccccccccc" />
        <path
           style="fill:#e20909;fill-opacity:1;stroke:#000000;stroke-width:1.32000005;stroke-miterlimit:4;stroke-dasharray:none;stroke-opacity:1"
           d="M 503.83263,250.73842 C 501.86037,251.19569 501.6369,252.39982 501.71517,253.73592 C 502.3156,254.69854 501.58814,256.27281 504.16263,256.95342 C 503.85854,260.44509 506.96701,260.86149 508.2739,262.74217 L 502.7189,258.41092 C 503.2498,255.84146 501.64174,255.4079 500.4914,254.51967 C 499.58289,256.22617 499.84596,259.35188 496.49017,258.06717 C 494.25414,260.53551 495.55504,262.89987 497.37017,263.18217 C 499.58474,264.26262 500.26322,262.58365 501.0414,261.07842 C 500.8434,262.0545 499.78357,263.15265 501.49517,263.85592 C 503.87746,265.94244 507.3891,267.1844 505.2764,272.64217 C 503.04406,272.12127 499.30987,272.66295 501.0414,276.07967 C 502.78437,276.71519 506.21065,276.32955 504.93263,281.08467 C 506.03844,282.17191 506.772,281.78152 507.60017,281.75842 C 509.38996,280.49752 509.31278,278.81404 509.11263,277.11092 C 509.86476,281.64955 512.74267,285.07362 510.5014,287.20342 C 507.17047,290.36866 508.67892,292.82689 509.71763,295.43967 C 512.19025,301.65936 510.33768,303.87572 504.38263,300.21092 C 504.84736,305.39783 513.36791,308.58456 515.16263,300.99467 C 516.1833,296.67845 515.44119,293.13733 516.73017,289.87092 C 515.33524,293.9671 517.37803,296.95831 519.94763,299.99092 C 523.98432,304.75496 521.14636,305.51433 518.9439,306.54967 C 520.79304,307.03354 523.13371,307.27446 522.72517,308.88717 C 525.01264,310.00584 527.18347,310.65617 529.28474,311.02792 L 532.94452,320.88001 C 529.64672,323.97496 525.19916,327.13545 519.72763,330.35092 C 517.38736,336.77486 503.31646,344.73959 501.0414,338.24342 C 500.58222,336.13222 499.81763,335.23247 497.04017,337.12967 C 496.77138,338.54739 497.26189,339.888 494.48263,341.58467 L 495.1564,343.24842 C 497.62612,344.29608 499.61822,344.39013 501.82517,344.91217 C 498.60582,344.53077 495.63349,345.4151 492.14517,343.68842 L 491.37517,345.24217 C 494.66312,347.46604 492.60295,349.7008 492.3789,351.92467 C 493.75029,352.32907 495.11869,353.59428 496.49017,350.92092 L 500.1614,350.24717 C 496.67009,351.638 495.80989,352.70186 494.59263,353.80842 C 497.3263,356.45777 496.17399,358.78668 495.4864,361.15092 C 497.8943,361.40138 500.16232,361.34835 500.8214,357.80967 C 502.26689,356.07779 503.72091,354.635 505.1664,354.37217 C 506.66504,354.92174 509.88905,354.2438 506.50017,358.13967 C 503.86198,359.98255 504.63633,361.19716 506.72017,362.15467 C 508.94406,360.60201 511.16501,359.68989 513.3889,361.37092 C 516.71917,360.018 516.28678,358.01051 514.17263,354.13842 C 518.08449,354.4778 518.79254,353.32281 520.38763,351.92467 C 520.38446,353.43585 520.54211,354.89945 519.39763,356.69592 C 521.61782,356.18534 526.32204,356.83126 525.99763,351.63592 L 526.2864,352.80467 L 528.7339,353.14842 C 530.21164,351.25813 528.94787,349.35996 528.8439,347.46967 C 529.16686,349.22362 529.38286,351.00711 530.8514,352.47467 C 533.52972,352.30545 536.33728,351.34372 538.7439,352.80467 L 537.19017,347.79967 C 537.73502,346.19932 537.59,345.16359 536.99763,344.38967 C 538.28762,344.80648 539.82137,344.58457 541.3014,342.35467 C 543.26582,346.74774 545.22202,346.88464 547.1864,347.24967 L 547.0214,343.20717 C 548.65758,348.89431 555.30788,343.60121 555.20263,343.13842 C 546.76809,341.82677 552.12175,336.11532 555.78017,332.64717 C 562.43205,338.95663 570.35874,341.17617 575.47017,351.95217 C 575.36352,356.17352 574.96615,360.54177 574.3839,365.00092 C 574.26079,367.93623 575.97982,368.81363 577.69763,369.70342 C 574.63804,370.43469 571.12209,370.46451 572.72017,378.28342 C 573.80306,383.10493 570.26845,384.95994 565.5289,386.03842 C 568.6584,388.16735 576.5729,391.75329 577.97263,376.89467 C 583.04583,387.01849 587.89313,379.24115 601.4989,396.26842 C 600.16236,399.35947 603.38408,404.1556 597.7864,407.62592 C 593.11021,410.7002 592.04224,405.19641 586.99263,407.29592 C 587.56533,410.15789 587.24726,412.16443 585.72763,414.81717 C 589.60258,415.61324 593.4715,415.68638 597.3464,413.15342 C 593.54088,415.73305 589.22897,416.83263 585.09517,416.12342 C 587.39721,417.5397 587.96094,421.85974 588.7664,424.78592 C 590.54008,423.88411 592.4888,423.15385 592.6439,420.63342 L 599.8489,415.93092 C 598.21311,417.96522 595.97906,419.57133 595.6964,422.57217 C 598.5755,420.72683 600.66281,421.73202 602.33763,424.22217 C 603.6747,422.14185 602.47104,419.48158 604.5514,418.14467 C 605.05432,416.5048 605.33456,414.75572 607.04017,413.71717 C 605.08076,415.193 605.31845,416.66884 605.10822,418.14467 C 606.7668,416.4052 609.88895,416.83913 612.5814,417.58092 L 612.29263,414.54217 C 614.25226,413.32988 617.10689,414.19334 615.9364,408.28592 C 619.18642,410.77666 620.86242,409.98355 623.1689,408.93217 C 619.13256,407.8862 618.22154,405.95707 617.0089,403.47342 C 618.80155,403.26331 620.60181,403.1021 621.9864,401.25967 C 618.50851,400.14797 614.43807,396.73693 615.89517,397.38217 C 620.68118,399.50155 626.32656,397.77949 627.52763,395.71842 C 619.2118,399.935 621.53223,393.25056 615.62017,388.80217 C 625.85057,396.79209 627.77865,381.71368 630.8414,391.29092 C 636.5423,390.56993 633.49856,381.72828 629.23263,382.98592 C 616.82304,386.64441 621.13531,381.01434 617.5589,379.94717 C 630.06968,383.55973 627.30252,370.03594 631.1714,367.04967 C 627.46528,369.40951 624.6422,373.05044 620.15763,372.19217 C 617.1189,371.63832 614.0121,373.26119 613.97017,377.55467 C 613.31004,371.56743 610.19722,375.11905 608.4289,373.85592 C 606.46514,369.5285 602.43641,367.12941 602.00763,363.88717 C 601.46885,359.81229 600.84009,355.09225 600.1239,349.77967 C 596.55414,346.00414 593.18932,342.04591 592.0939,336.20842 C 582.80273,328.0234 583.3456,315.90874 579.6364,305.49092 L 538.9089,288.81217 C 531.34618,278.43851 525.58869,278.7825 518.9439,266.74342 C 517.28079,264.8769 515.3975,260.62721 520.38763,258.41092 L 519.28763,254.51967 C 517.69263,253.94532 516.09763,255.3276 514.50263,252.18217 L 512.9489,251.17842 C 511.78629,251.17655 511.1383,251.95926 511.1614,253.73592 C 513.7218,257.31572 511.33084,257.09323 513.7189,263.74592 C 512.25238,259.70589 512.03836,258.77674 509.82763,256.29342 C 510.35413,254.94434 511.2036,253.74683 510.6114,251.83842 C 509.66923,250.55308 509.17172,251.07641 508.4939,250.84842 C 506.13198,253.42836 505.05077,251.87586 503.83263,250.73842 z M 575.4839,348.39092 C 575.49882,349.2753 575.4978,350.17338 575.4839,351.07217 L 575.4839,348.39092 z"
           id="path19522"
           sodipodi:nodetypes="cccccccccccccccsscscsccccccccccccccccccccccccccccccccccccccccccccccccccccccccccccccccscccscccccscccccccccccccccccc" />
        <path
           style="fill:#e20909;fill-opacity:1;stroke:#000000;stroke-width:1.32000005;stroke-miterlimit:4;stroke-dasharray:none;stroke-opacity:1"
           d="M 570.20579,344.61748 C 570.25908,349.38572 572.30314,350.94187 572.40729,354.70302 L 576.39567,355.35348 C 573.12145,354.79642 570.70304,355.08674 570.67752,357.84805 C 570.553,360.45849 572.88007,361.10059 575.23781,360.52132 C 578.11484,350.14924 571.98995,344.00838 570.20579,344.61748 z"
           id="path19524"
           sodipodi:nodetypes="cccccc" />
        <path
           style="fill:#e20909;fill-opacity:1;stroke:#000000;stroke-width:1.32000005;stroke-miterlimit:4;stroke-dasharray:none;stroke-opacity:1"
           d="M 607.08122,378.36934 C 609.26732,379.33763 612.5755,378.67383 612.66364,382.69375 C 610.64448,385.99691 612.24691,386.40278 612.11324,388.19754"
           id="path19526"
           sodipodi:nodetypes="ccc" />
        <g
           id="g19528"
           transform="matrix(0.44,0,0,0.44,1353.7889,205.51467)">
          <path
             sodipodi:nodetypes="cccc"
             id="path19530"
             d="M -1928.9624,172.15256 C -1940.0798,177.46283 -1950.8781,172.64593 -1948.7149,158.57266 C -1943.4313,162.73376 -1938.5101,166.60124 -1935.3408,161.24749 C -1930.7654,161.45355 -1928.0637,164.2828 -1928.9624,172.15256 z"
             style="opacity:1;fill:#e20909;fill-opacity:1;stroke:#000000;stroke-width:3;stroke-miterlimit:4;stroke-dasharray:none;stroke-opacity:1" />
          <path
             sodipodi:nodetypes="cccc"
             id="path19532"
             d="M -1949.1264,119.68479 C -1951.9721,113.15856 -1958.3269,118.03709 -1963.1178,117.83298 C -1956.4709,104.82487 -1948.4347,102.65259 -1939.0444,111.04303 C -1940.6803,116.3383 -1942.1516,121.86395 -1949.1264,119.68479 z"
             style="opacity:1;fill:#e20909;fill-opacity:1;stroke:#000000;stroke-width:3;stroke-miterlimit:4;stroke-dasharray:none;stroke-opacity:1" />
          <path
             sodipodi:nodetypes="cccc"
             id="path19534"
             d="M -1944.8056,98.286163 C -1939.6551,98.845052 -1929.9172,92.850417 -1931.6372,103.22431 C -1927.741,108.12426 -1923.5308,107.37284 -1919.0861,102.40128 C -1923.9617,80.076615 -1941.3388,89.637613 -1944.8056,98.286163 z"
             style="opacity:1;fill:#e20909;fill-opacity:1;stroke:#000000;stroke-width:3;stroke-miterlimit:4;stroke-dasharray:none;stroke-opacity:1" />
          <path
             sodipodi:nodetypes="ccccc"
             id="path19536"
             d="M -1909.2098,105.28187 C -1906.3539,98.192466 -1909.2889,96.425835 -1913.1192,93.965288 L -1906.7407,94.3768 C -1895.5859,94.769369 -1895.1895,101.88601 -1897.0702,110.42577 C -1902.7192,113.11794 -1905.614,108.23611 -1909.2098,105.28187 z"
             style="opacity:1;fill:#e20909;fill-opacity:1;stroke:#000000;stroke-width:3;stroke-miterlimit:4;stroke-dasharray:none;stroke-opacity:1" />
        </g>
        <g
           id="g19538"
           transform="matrix(0.44,0,0,0.44,1353.7889,205.51467)">
          <path
             sodipodi:nodetypes="cccc"
             id="path19540"
             d="M -1951.8013,309.18605 C -1956.5086,305.12227 -1961.9093,304.06344 -1968.2617,307.12849 C -1968.3074,294.3535 -1957.3044,291.11602 -1946.0401,299.30976 C -1947.1757,303.38662 -1948.5062,307.26862 -1951.8013,309.18605 z"
             style="opacity:1;fill:#e20909;fill-opacity:1;stroke:#000000;stroke-width:3;stroke-miterlimit:4;stroke-dasharray:none;stroke-opacity:1" />
          <path
             sodipodi:nodetypes="cccc"
             id="path19542"
             d="M -1972.9941,333.87677 C -1975.7436,322.91527 -1972.553,316.25523 -1959.4142,316.79902 C -1957.052,320.20074 -1953.5486,322.56494 -1956.9452,331.20194 C -1963.2108,326.59802 -1968.3699,328.63245 -1972.9941,333.87677 z"
             style="opacity:1;fill:#e20909;fill-opacity:1;stroke:#000000;stroke-width:3;stroke-miterlimit:4;stroke-dasharray:none;stroke-opacity:1" />
          <path
             sodipodi:nodetypes="cccc"
             id="path19544"
             d="M -1953.0358,335.72857 C -1949.0583,341.28398 -1946.4465,346.83939 -1949.5379,352.3948 C -1955.9735,347.97425 -1958.5145,352.44434 -1956.3279,358.77324 C -1971.177,353.66724 -1966.6996,338.0241 -1953.0358,335.72857 z"
             style="opacity:1;fill:#e20909;fill-opacity:1;stroke:#000000;stroke-width:3;stroke-miterlimit:4;stroke-dasharray:none;stroke-opacity:1" />
          <path
             sodipodi:nodetypes="cccc"
             id="path19546"
             d="M -1923.4069,354.86388 C -1918.9872,352.084 -1914.9341,352.23741 -1911.0616,353.8351 C -1915.8708,371.74046 -1929.3261,366.78279 -1933.489,361.85957 C -1929.9946,358.80888 -1919.4111,359.91194 -1923.4069,354.86388 z"
             style="opacity:1;fill:#e20909;fill-opacity:1;stroke:#000000;stroke-width:3;stroke-miterlimit:4;stroke-dasharray:none;stroke-opacity:1" />
        </g>
        <g
           id="g19548"
           transform="matrix(0.44,0,0,0.44,1353.7889,205.51467)">
          <path
             sodipodi:nodetypes="cccc"
             id="path19550"
             d="M -1900.1565,424.20364 C -1907.6793,414.06237 -1922.8785,416.03889 -1926.699,429.5533 C -1921.2163,430.14989 -1911.3165,422.28034 -1911.6788,434.07993 L -1900.1565,424.20364 z"
             style="opacity:1;fill:#e20909;fill-opacity:1;stroke:#000000;stroke-width:3;stroke-miterlimit:4;stroke-dasharray:none;stroke-opacity:1" />
          <path
             sodipodi:nodetypes="cccc"
             id="path19552"
             d="M -1919.4976,452.39221 C -1925.5134,445.33492 -1928.6614,449.27075 -1931.4314,454.65553 C -1938.0171,441.50903 -1933.073,436.049 -1918.263,437.16627 C -1916.4965,441.30814 -1917.439,446.61102 -1919.4976,452.39221 z"
             style="opacity:1;fill:#e20909;fill-opacity:1;stroke:#000000;stroke-width:3;stroke-miterlimit:4;stroke-dasharray:none;stroke-opacity:1" />
          <path
             sodipodi:nodetypes="cccc"
             id="path19554"
             d="M -1913.3249,459.79943 C -1923.855,462.2653 -1926.5825,468.86194 -1918.4688,481.19805 C -1916.7098,476.04477 -1914.9644,470.87335 -1908.3868,472.14479 C -1906.9353,468.02967 -1908.1969,463.91455 -1913.3249,459.79943 z"
             style="opacity:1;fill:#e20909;fill-opacity:1;stroke:#000000;stroke-width:3;stroke-miterlimit:4;stroke-dasharray:none;stroke-opacity:1" />
          <path
             sodipodi:nodetypes="cccc"
             id="path19556"
             d="M -1880.8155,475.43688 C -1878.7554,480.68555 -1880.8876,483.92161 -1884.7248,485.31317 C -1876.7601,491.33601 -1866.4216,487.04018 -1867.6471,473.79083 C -1871.8041,472.2477 -1876.1124,472.06508 -1880.8155,475.43688 z"
             style="opacity:1;fill:#e20909;fill-opacity:1;stroke:#000000;stroke-width:3;stroke-miterlimit:4;stroke-dasharray:none;stroke-opacity:1" />
        </g>
        <g
           id="g19558"
           transform="matrix(0.44,0,0,0.44,1353.7889,205.51467)">
          <path
             sodipodi:nodetypes="cccc"
             id="path19560"
             d="M -1742.1359,459.38792 L -1744.3992,473.37932 C -1749.3007,467.72844 -1753.3998,476.52197 -1757.9791,476.67142 C -1763.9033,468.37853 -1754.0825,457.49611 -1742.1359,459.38792 z"
             style="opacity:1;fill:#e20909;fill-opacity:1;stroke:#000000;stroke-width:3;stroke-miterlimit:4;stroke-dasharray:none;stroke-opacity:1" />
          <path
             sodipodi:nodetypes="cccc"
             id="path19562"
             d="M -1739.4611,494.9837 C -1739.3758,490.46655 -1740.2095,485.84728 -1745.0165,480.78654 C -1754.1296,483.4709 -1759.7111,490.41292 -1750.9834,500.95062 C -1747.9555,499.34449 -1746.4348,489.92361 -1739.4611,494.9837 z"
             style="opacity:1;fill:#e20909;fill-opacity:1;stroke:#000000;stroke-width:3;stroke-miterlimit:4;stroke-dasharray:none;stroke-opacity:1" />
          <path
             sodipodi:nodetypes="cccc"
             id="path19564"
             d="M -1721.9718,493.33765 C -1715.5779,487.65302 -1712.3955,492.13853 -1709.215,496.62975 C -1714.001,500.27491 -1714.1787,505.64016 -1711.684,512.47296 C -1725.5105,510.17915 -1723.7993,499.40035 -1721.9718,493.33765 z"
             style="opacity:1;fill:#e20909;fill-opacity:1;stroke:#000000;stroke-width:3;stroke-miterlimit:4;stroke-dasharray:none;stroke-opacity:1" />
          <path
             sodipodi:nodetypes="cccc"
             id="path19566"
             d="M -1688.2278,481.81532 C -1689.3836,486.42515 -1689.2654,490.71646 -1688.2278,494.77794 C -1697.1211,496.49777 -1701.8508,489.43704 -1702.2193,484.6959 C -1698.5123,480.19988 -1695.2256,478.63277 -1688.2278,481.81532 z"
             style="opacity:1;fill:#e20909;fill-opacity:1;stroke:#000000;stroke-width:3;stroke-miterlimit:4;stroke-dasharray:none;stroke-opacity:1" />
        </g>
        <g
           id="g19568"
           transform="matrix(0.44,0,0,0.44,1353.7889,205.51467)">
          <path
             style="opacity:1;fill:#e20909;fill-opacity:1;stroke:#000000;stroke-width:3;stroke-miterlimit:4;stroke-dasharray:none;stroke-opacity:1"
             d="M -1807.179,161.61985 L -1810.9576,153.59021 L -1816.3894,157.1327 L -1816.1533,161.61985 L -1807.179,161.61985 z"
             id="path19570" />
          <path
             id="path19572"
             d="M -1823.2382,140.83725 L -1816.3894,140.36492 L -1817.0979,145.3244 L -1823.0021,148.15839 L -1823.2382,140.83725 z"
             style="opacity:1;fill:#e20909;fill-opacity:1;stroke:#000000;stroke-width:3;stroke-miterlimit:4;stroke-dasharray:none;stroke-opacity:1" />
          <path
             sodipodi:nodetypes="csccccccccccccccscccccccccccccscsscscscccccscccccc"
             id="path19574"
             d="M -1789.0408,133.00808 C -1788.3881,128.82079 -1803.1729,130.03887 -1808.8457,135.51214 C -1811.6939,138.26018 -1826.8155,144.04947 -1832.5205,135.96743 L -1833.4311,126.63409 C -1836.6647,123.51217 -1839.9443,120.42559 -1835.7075,112.74791 L -1820.2278,107.2845 L -1820.2278,97.951165 C -1814.6554,95.874361 -1808.1889,95.055776 -1803.1546,90.211327 C -1799.0384,86.907045 -1793.3827,85.398697 -1785.6262,86.341408 C -1775.2133,88.474656 -1757.9006,85.673271 -1752.7428,97.401853 C -1757.665,100.14546 -1766.6764,96.868945 -1767.131,106.3138 C -1764.3003,95.934 -1748.3762,101.10017 -1737.9127,98.539141 C -1735.2669,101.19252 -1744.9687,107.76533 -1756.2603,109.10564 C -1737.5742,106.90558 -1744.2979,117.47315 -1741.6912,123.21946 C -1738.46,125.84287 -1737.4644,132.29867 -1726.2115,121.17068 C -1729.8295,126.5361 -1725.5939,136.60067 -1740.553,137.10564 C -1731.9381,138.06286 -1731.588,152.21507 -1731.9026,153.95117 C -1732.887,159.38296 -1720.6607,173.58132 -1716.4229,165.10564 C -1723.8568,175.53659 -1729.1577,172.45828 -1734.862,171.93491 C -1716.3397,185.1112 -1747.6784,216.81711 -1727.1221,226.56906 C -1732.6347,227.72027 -1736.9819,232.4723 -1744.8782,221.33329 C -1741.8848,227.71356 -1735.4999,232.49786 -1742.1465,243.41459 C -1751.1027,260.66299 -1736.1436,256.13386 -1730.5368,255.47964 C -1731.729,260.24667 -1759.62,280.16704 -1756.488,235.67476 C -1758.8624,251.30467 -1753.9921,265.66144 -1766.7319,275.51216 C -1776.4575,282.82965 -1772.1228,287.33506 -1766.9595,291.67476 C -1799.0688,286.90053 -1785.5006,264.83465 -1784.0327,248.87801 C -1785.7605,261.32343 -1789.6243,272.84004 -1801.1059,276.42273 C -1816.1146,284.02747 -1806.4765,299.03785 -1801.7888,306.24387 C -1807.9482,309.69539 -1837.5995,293.05162 -1818.4067,261.62597 C -1832.501,279.53631 -1835.0654,300.8674 -1854.2997,303.14926 C -1876.1022,305.73578 -1890.2868,285.63464 -1866.8945,275.7398 C -1873.3912,284.02605 -1870.8826,287.22144 -1865.301,286.89427 C -1857.7583,286.45214 -1849.8025,280.21625 -1849.8213,269.59345 C -1849.8663,244.1917 -1837.3943,245.27392 -1830.4717,243.41459 C -1863.1023,246.75714 -1854.2745,279.21257 -1894.4392,264.35768 C -1910.9478,258.25198 -1912.4974,242.67685 -1901.4961,226.79671 C -1899.4399,236.40538 -1901.2466,257.37662 -1881.6912,241.8211 C -1866.8094,229.98325 -1855.1659,221.94151 -1838.8945,222.01622 C -1859.2716,222.1099 -1883.9748,225.616 -1881.236,198.56906 C -1860.7285,202.65415 -1852.6704,199.15873 -1838.2116,198.56906 C -1866.6877,200.1319 -1872.0228,169.81372 -1845.7238,164.19507 C -1861.3981,184.92688 -1849.6259,192.86097 -1821.8213,181.49589 C -1821.8213,181.49589 -1811.3181,181.08264 -1808.3904,183.77231 C -1800.9586,190.59997 -1781.2273,166.48341 -1782.6668,163.2845 C -1800.0701,184.96106 -1801.0975,176.04896 -1810.4392,178.08125 C -1815.5524,174.5367 -1816.6084,170.07528 -1816.1303,162.37394 C -1808.6015,164.94082 -1803.5445,163.80001 -1798.3742,162.82922 C -1793.5921,158.76233 -1789.663,154.52484 -1787.9026,149.85361 C -1787.5143,144.23843 -1787.617,138.62326 -1789.0408,133.00808 z"
             style="opacity:1;fill:#e20909;fill-opacity:1;stroke:#000000;stroke-width:3;stroke-miterlimit:4;stroke-dasharray:none;stroke-opacity:1" />
        </g>
        <path
           d="M 555.56171,252.79403 C 556.30971,251.36403 562.20571,251.74683 562.16171,251.95803 C 563.92171,252.53003 564.05371,253.74443 564.36171,254.88843 L 564.58171,256.24803 L 563.83371,255.41203 C 563.21771,256.00163 562.33771,256.01923 561.54571,256.14243 L 560.62171,256.24803 C 559.43371,255.40763 558.86171,254.23283 558.42171,253.00523 C 557.14571,253.00523 556.44171,252.88203 555.56171,252.79403 L 555.56171,252.79403 z"
           style="fill:#000000;stroke:#000000;stroke-width:1.32000005"
           id="path19576" />
      </g>
      <g
         id="g19578"
         inkscape:label="Meubles"
         transform="translate(-484.61116,-242.31771)" />
      <g
         id="g19580"
         inkscape:label="Reflet final"
         transform="translate(-484.61116,-242.31771)" />
      <g
         id="g19582"
         inkscape:label="Contour final"
         transform="translate(-484.61116,-242.31771)" />
    </g>
    <use
       style="display:inline"
       x="0"
       y="0"
       xlink:href="#g19508"
       id="use19584"
       transform="translate(-357.179,0)"
       width="600"
       height="660" />
    <g
       style="display:inline"
       transform="translate(62.19248,362.25332)"
       id="g19586">
      <g
         id="g19588"
         inkscape:label="Fond écu"
         style="display:inline"
         transform="translate(-484.61116,-242.31771)">
        <g
           id="g19590"
           inkscape:label="Meubles"
           transform="translate(1.3295043e-4,-700.00028)" />
        <g
           id="g19592"
           inkscape:label="Meubles"
           transform="translate(1214.9342,19.818812)" />
        <path
           style="opacity:1;fill:#e20909;fill-opacity:1;stroke:#000000;stroke-width:1.32000005;stroke-miterlimit:4;stroke-dasharray:none;stroke-opacity:1"
           d="M 346.70315,102.0371 C 358.56544,122.84184 385.72999,109.12863 365.2085,88.974497 C 343.6826,67.833936 352.85744,53.49619 358.85863,47.24675 C 368.50046,37.20608 379.70971,29.895409 380.26678,18.400176 C 377.63163,7.7088815 362.21324,10.495105 364.11995,20.940126 C 366.96935,36.549206 364.89009,34.998503 362.12428,39.082625 C 358.84892,43.919171 354.89105,44.892395 351.60163,44.525375 C 355.76324,38.393357 355.83965,32.88382 353.05303,24.387201 C 349.50789,13.577791 357.69337,8.0895402 362.84998,6.244702 C 368.77697,4.1242494 379.25597,5.1450567 383.89528,11.687452 C 390.27587,20.685413 384.43215,32.173206 376.27543,39.808325 C 355.475,59.278601 360.21507,53.924718 359.76575,65.389249 C 359.78772,60.487636 359.03315,58.369289 362.66855,54.322324 C 373.03859,42.778283 378.91836,47.536593 384.0767,42.5297 C 386.59898,40.081471 389.82913,38.364227 386.07238,29.648526 C 391.96408,31.221572 394.4992,36.377404 390.608,45.4325 C 386.65667,54.627523 372.23195,56.38956 369.38128,59.402224 C 360.85055,68.417741 369.44024,71.033317 370.2884,77.000448 C 369.56702,73.311473 364.42537,69.596826 369.74413,65.933524 C 371.9765,64.395977 374.66822,62.884835 380.26678,61.397899 C 386.70455,59.688076 389.9551,56.605692 387.7052,51.056674 C 397.80651,57.673513 390.08224,65.082658 382.83646,68.03533 C 371.76009,72.548971 373.43481,79.264865 374.6426,88.611647 C 373.09272,81.288991 376.40878,76.780825 382.26245,74.823348 C 386.66678,73.35053 390.74752,76.538583 393.87365,83.350323 C 386.09799,76.435549 378.38957,79.463583 378.2711,90.244472 L 378.08968,106.75415 C 376.89572,112.74235 372.22515,122.06163 357.58865,117.63965 L 341.07898,108.93125 L 346.70315,102.0371 z"
           id="path19594"
           transform="translate(244.89896,237.7291)"
           sodipodi:nodetypes="csscsscsssscsscsscsscscscscccc" />
        <path
           sodipodi:nodetypes="ccccccc"
           id="path19596"
           d="M 539.41855,266.52646 C 539.34586,270.58276 540.10953,274.34036 543.8868,277.02167 C 547.84671,279.3142 551.98073,277.39603 556.04461,273.38472 C 560.33994,269.25869 563.7726,270.08786 567.03515,271.11075 C 567.57222,269.20295 566.91301,268.42762 567.0594,267.14994 C 562.18235,265.04464 556.71918,268.3121 551.31356,270.96397 C 545.90151,274.24841 542.35428,271.49634 539.41855,266.52646 z"
           style="fill:#e20909;fill-opacity:1;stroke:#000000;stroke-width:1.32000005;stroke-miterlimit:4;stroke-dasharray:none;stroke-opacity:1" />
        <path
           style="fill:#e20909;fill-opacity:1;stroke:#000000;stroke-width:1.32000005;stroke-miterlimit:4;stroke-dasharray:none;stroke-opacity:1"
           d="M 568.00425,341.65117 C 560.03044,344.71026 558.62336,350.84779 549.1341,353.13051 C 544.54328,354.23487 541.20231,353.05709 532.15098,363.50909 C 529.87082,364.04635 529.23713,365.40686 529.32046,367.12587 C 531.49987,373.42403 529.6649,377.83305 521.7724,379.39147 C 522.77322,382.72646 532.37318,382.9296 533.25173,377.97621 C 533.38906,377.20204 534.35248,370.2709 534.35248,370.2709 L 533.7235,378.76247 L 537.81202,383.32275 C 538.67029,387.14875 538.06502,389.78563 534.19522,389.77006 C 529.35276,389.92692 528.28431,393.43846 525.86092,395.74561 C 524.60287,395.85249 523.08143,396.48616 521.88262,396.47453 L 531.09524,406.94786 C 536.12422,407.66244 541.90138,410.83751 544.10204,399.67689 C 544.20813,403.17608 544.35936,406.08259 546.47989,405.95576 C 547.96256,406.53557 546.95861,408.2485 556.37558,406.86439 C 553.73835,405.78678 550.42656,405.77844 554.16616,399.51964 L 553.6944,395.27385 C 556.8473,394.46087 558.03676,392.46983 556.99668,389.14105 C 559.07172,388.27428 559.63572,387.07171 557.94018,385.36702 C 544.48524,376.44437 563.85633,364.05889 574.60883,363.35184 L 582.47136,358.3198 L 577.43935,341.17941 L 568.00425,341.65117 z"
           id="path19598"
           sodipodi:nodetypes="cscccscccccccccccccccccc" />
        <path
           style="fill:#e20909;fill-opacity:1;stroke:#000000;stroke-width:1.32000005;stroke-miterlimit:4;stroke-dasharray:none;stroke-opacity:1"
           d="M 503.83263,250.73842 C 501.86037,251.19569 501.6369,252.39982 501.71517,253.73592 C 502.3156,254.69854 501.58814,256.27281 504.16263,256.95342 C 503.85854,260.44509 506.96701,260.86149 508.2739,262.74217 L 502.7189,258.41092 C 503.2498,255.84146 501.64174,255.4079 500.4914,254.51967 C 499.58289,256.22617 499.84596,259.35188 496.49017,258.06717 C 494.25414,260.53551 495.55504,262.89987 497.37017,263.18217 C 499.58474,264.26262 500.26322,262.58365 501.0414,261.07842 C 500.8434,262.0545 499.78357,263.15265 501.49517,263.85592 C 503.87746,265.94244 507.3891,267.1844 505.2764,272.64217 C 503.04406,272.12127 499.30987,272.66295 501.0414,276.07967 C 502.78437,276.71519 506.21065,276.32955 504.93263,281.08467 C 506.03844,282.17191 506.772,281.78152 507.60017,281.75842 C 509.38996,280.49752 509.31278,278.81404 509.11263,277.11092 C 509.86476,281.64955 512.74267,285.07362 510.5014,287.20342 C 507.17047,290.36866 508.67892,292.82689 509.71763,295.43967 C 512.19025,301.65936 510.33768,303.87572 504.38263,300.21092 C 504.84736,305.39783 513.36791,308.58456 515.16263,300.99467 C 516.1833,296.67845 515.44119,293.13733 516.73017,289.87092 C 515.33524,293.9671 517.37803,296.95831 519.94763,299.99092 C 523.98432,304.75496 521.14636,305.51433 518.9439,306.54967 C 520.79304,307.03354 523.13371,307.27446 522.72517,308.88717 C 525.01264,310.00584 527.18347,310.65617 529.28474,311.02792 L 532.94452,320.88001 C 529.64672,323.97496 525.19916,327.13545 519.72763,330.35092 C 517.38736,336.77486 503.31646,344.73959 501.0414,338.24342 C 500.58222,336.13222 499.81763,335.23247 497.04017,337.12967 C 496.77138,338.54739 497.26189,339.888 494.48263,341.58467 L 495.1564,343.24842 C 497.62612,344.29608 499.61822,344.39013 501.82517,344.91217 C 498.60582,344.53077 495.63349,345.4151 492.14517,343.68842 L 491.37517,345.24217 C 494.66312,347.46604 492.60295,349.7008 492.3789,351.92467 C 493.75029,352.32907 495.11869,353.59428 496.49017,350.92092 L 500.1614,350.24717 C 496.67009,351.638 495.80989,352.70186 494.59263,353.80842 C 497.3263,356.45777 496.17399,358.78668 495.4864,361.15092 C 497.8943,361.40138 500.16232,361.34835 500.8214,357.80967 C 502.26689,356.07779 503.72091,354.635 505.1664,354.37217 C 506.66504,354.92174 509.88905,354.2438 506.50017,358.13967 C 503.86198,359.98255 504.63633,361.19716 506.72017,362.15467 C 508.94406,360.60201 511.16501,359.68989 513.3889,361.37092 C 516.71917,360.018 516.28678,358.01051 514.17263,354.13842 C 518.08449,354.4778 518.79254,353.32281 520.38763,351.92467 C 520.38446,353.43585 520.54211,354.89945 519.39763,356.69592 C 521.61782,356.18534 526.32204,356.83126 525.99763,351.63592 L 526.2864,352.80467 L 528.7339,353.14842 C 530.21164,351.25813 528.94787,349.35996 528.8439,347.46967 C 529.16686,349.22362 529.38286,351.00711 530.8514,352.47467 C 533.52972,352.30545 536.33728,351.34372 538.7439,352.80467 L 537.19017,347.79967 C 537.73502,346.19932 537.59,345.16359 536.99763,344.38967 C 538.28762,344.80648 539.82137,344.58457 541.3014,342.35467 C 543.26582,346.74774 545.22202,346.88464 547.1864,347.24967 L 547.0214,343.20717 C 548.65758,348.89431 555.30788,343.60121 555.20263,343.13842 C 546.76809,341.82677 552.12175,336.11532 555.78017,332.64717 C 562.43205,338.95663 570.35874,341.17617 575.47017,351.95217 C 575.36352,356.17352 574.96615,360.54177 574.3839,365.00092 C 574.26079,367.93623 575.97982,368.81363 577.69763,369.70342 C 574.63804,370.43469 571.12209,370.46451 572.72017,378.28342 C 573.80306,383.10493 570.26845,384.95994 565.5289,386.03842 C 568.6584,388.16735 576.5729,391.75329 577.97263,376.89467 C 583.04583,387.01849 587.89313,379.24115 601.4989,396.26842 C 600.16236,399.35947 603.38408,404.1556 597.7864,407.62592 C 593.11021,410.7002 592.04224,405.19641 586.99263,407.29592 C 587.56533,410.15789 587.24726,412.16443 585.72763,414.81717 C 589.60258,415.61324 593.4715,415.68638 597.3464,413.15342 C 593.54088,415.73305 589.22897,416.83263 585.09517,416.12342 C 587.39721,417.5397 587.96094,421.85974 588.7664,424.78592 C 590.54008,423.88411 592.4888,423.15385 592.6439,420.63342 L 599.8489,415.93092 C 598.21311,417.96522 595.97906,419.57133 595.6964,422.57217 C 598.5755,420.72683 600.66281,421.73202 602.33763,424.22217 C 603.6747,422.14185 602.47104,419.48158 604.5514,418.14467 C 605.05432,416.5048 605.33456,414.75572 607.04017,413.71717 C 605.08076,415.193 605.31845,416.66884 605.10822,418.14467 C 606.7668,416.4052 609.88895,416.83913 612.5814,417.58092 L 612.29263,414.54217 C 614.25226,413.32988 617.10689,414.19334 615.9364,408.28592 C 619.18642,410.77666 620.86242,409.98355 623.1689,408.93217 C 619.13256,407.8862 618.22154,405.95707 617.0089,403.47342 C 618.80155,403.26331 620.60181,403.1021 621.9864,401.25967 C 618.50851,400.14797 614.43807,396.73693 615.89517,397.38217 C 620.68118,399.50155 626.32656,397.77949 627.52763,395.71842 C 619.2118,399.935 621.53223,393.25056 615.62017,388.80217 C 625.85057,396.79209 627.77865,381.71368 630.8414,391.29092 C 636.5423,390.56993 633.49856,381.72828 629.23263,382.98592 C 616.82304,386.64441 621.13531,381.01434 617.5589,379.94717 C 630.06968,383.55973 627.30252,370.03594 631.1714,367.04967 C 627.46528,369.40951 624.6422,373.05044 620.15763,372.19217 C 617.1189,371.63832 614.0121,373.26119 613.97017,377.55467 C 613.31004,371.56743 610.19722,375.11905 608.4289,373.85592 C 606.46514,369.5285 602.43641,367.12941 602.00763,363.88717 C 601.46885,359.81229 600.84009,355.09225 600.1239,349.77967 C 596.55414,346.00414 593.18932,342.04591 592.0939,336.20842 C 582.80273,328.0234 583.3456,315.90874 579.6364,305.49092 L 538.9089,288.81217 C 531.34618,278.43851 525.58869,278.7825 518.9439,266.74342 C 517.28079,264.8769 515.3975,260.62721 520.38763,258.41092 L 519.28763,254.51967 C 517.69263,253.94532 516.09763,255.3276 514.50263,252.18217 L 512.9489,251.17842 C 511.78629,251.17655 511.1383,251.95926 511.1614,253.73592 C 513.7218,257.31572 511.33084,257.09323 513.7189,263.74592 C 512.25238,259.70589 512.03836,258.77674 509.82763,256.29342 C 510.35413,254.94434 511.2036,253.74683 510.6114,251.83842 C 509.66923,250.55308 509.17172,251.07641 508.4939,250.84842 C 506.13198,253.42836 505.05077,251.87586 503.83263,250.73842 z M 575.4839,348.39092 C 575.49882,349.2753 575.4978,350.17338 575.4839,351.07217 L 575.4839,348.39092 z"
           id="path19600"
           sodipodi:nodetypes="cccccccccccccccsscscsccccccccccccccccccccccccccccccccccccccccccccccccccccccccccccccccscccscccccscccccccccccccccccc" />
        <path
           style="fill:#e20909;fill-opacity:1;stroke:#000000;stroke-width:1.32000005;stroke-miterlimit:4;stroke-dasharray:none;stroke-opacity:1"
           d="M 570.20579,344.61748 C 570.25908,349.38572 572.30314,350.94187 572.40729,354.70302 L 576.39567,355.35348 C 573.12145,354.79642 570.70304,355.08674 570.67752,357.84805 C 570.553,360.45849 572.88007,361.10059 575.23781,360.52132 C 578.11484,350.14924 571.98995,344.00838 570.20579,344.61748 z"
           id="path19602"
           sodipodi:nodetypes="cccccc" />
        <path
           style="fill:#e20909;fill-opacity:1;stroke:#000000;stroke-width:1.32000005;stroke-miterlimit:4;stroke-dasharray:none;stroke-opacity:1"
           d="M 607.08122,378.36934 C 609.26732,379.33763 612.5755,378.67383 612.66364,382.69375 C 610.64448,385.99691 612.24691,386.40278 612.11324,388.19754"
           id="path19604"
           sodipodi:nodetypes="ccc" />
        <g
           id="g19606"
           transform="matrix(0.44,0,0,0.44,1353.7889,205.51467)">
          <path
             sodipodi:nodetypes="cccc"
             id="path19608"
             d="M -1928.9624,172.15256 C -1940.0798,177.46283 -1950.8781,172.64593 -1948.7149,158.57266 C -1943.4313,162.73376 -1938.5101,166.60124 -1935.3408,161.24749 C -1930.7654,161.45355 -1928.0637,164.2828 -1928.9624,172.15256 z"
             style="opacity:1;fill:#e20909;fill-opacity:1;stroke:#000000;stroke-width:3;stroke-miterlimit:4;stroke-dasharray:none;stroke-opacity:1" />
          <path
             sodipodi:nodetypes="cccc"
             id="path19610"
             d="M -1949.1264,119.68479 C -1951.9721,113.15856 -1958.3269,118.03709 -1963.1178,117.83298 C -1956.4709,104.82487 -1948.4347,102.65259 -1939.0444,111.04303 C -1940.6803,116.3383 -1942.1516,121.86395 -1949.1264,119.68479 z"
             style="opacity:1;fill:#e20909;fill-opacity:1;stroke:#000000;stroke-width:3;stroke-miterlimit:4;stroke-dasharray:none;stroke-opacity:1" />
          <path
             sodipodi:nodetypes="cccc"
             id="path19612"
             d="M -1944.8056,98.286163 C -1939.6551,98.845052 -1929.9172,92.850417 -1931.6372,103.22431 C -1927.741,108.12426 -1923.5308,107.37284 -1919.0861,102.40128 C -1923.9617,80.076615 -1941.3388,89.637613 -1944.8056,98.286163 z"
             style="opacity:1;fill:#e20909;fill-opacity:1;stroke:#000000;stroke-width:3;stroke-miterlimit:4;stroke-dasharray:none;stroke-opacity:1" />
          <path
             sodipodi:nodetypes="ccccc"
             id="path19614"
             d="M -1909.2098,105.28187 C -1906.3539,98.192466 -1909.2889,96.425835 -1913.1192,93.965288 L -1906.7407,94.3768 C -1895.5859,94.769369 -1895.1895,101.88601 -1897.0702,110.42577 C -1902.7192,113.11794 -1905.614,108.23611 -1909.2098,105.28187 z"
             style="opacity:1;fill:#e20909;fill-opacity:1;stroke:#000000;stroke-width:3;stroke-miterlimit:4;stroke-dasharray:none;stroke-opacity:1" />
        </g>
        <g
           id="g19616"
           transform="matrix(0.44,0,0,0.44,1353.7889,205.51467)">
          <path
             sodipodi:nodetypes="cccc"
             id="path19618"
             d="M -1951.8013,309.18605 C -1956.5086,305.12227 -1961.9093,304.06344 -1968.2617,307.12849 C -1968.3074,294.3535 -1957.3044,291.11602 -1946.0401,299.30976 C -1947.1757,303.38662 -1948.5062,307.26862 -1951.8013,309.18605 z"
             style="opacity:1;fill:#e20909;fill-opacity:1;stroke:#000000;stroke-width:3;stroke-miterlimit:4;stroke-dasharray:none;stroke-opacity:1" />
          <path
             sodipodi:nodetypes="ccc"
             id="path19620"
             d="M -1959.4142,316.79902 C -1957.052,320.20074 -1953.5486,322.56494 -1956.9452,331.20194 C -1969.0059,338.37954 -1989.2772,319.08695 -1959.4142,316.79902 z"
             style="opacity:1;fill:#e20909;fill-opacity:1;stroke:#000000;stroke-width:3;stroke-miterlimit:4;stroke-dasharray:none;stroke-opacity:1" />
          <path
             sodipodi:nodetypes="ccccc"
             id="path19622"
             d="M -1953.0358,335.72857 C -1949.0583,341.28398 -1946.4465,346.83939 -1949.5379,352.3948 C -1952.2529,350.52988 -1954.2748,350.2473 -1955.5409,351.01909 L -1962.2148,340.3592 C -1960.0487,338.10504 -1956.9119,336.37976 -1953.0358,335.72857 z"
             style="opacity:1;fill:#e20909;fill-opacity:1;stroke:#000000;stroke-width:3;stroke-miterlimit:4;stroke-dasharray:none;stroke-opacity:1" />
          <path
             sodipodi:nodetypes="cccc"
             id="path19624"
             d="M -1923.4069,354.86388 C -1918.9872,352.084 -1914.9341,352.23741 -1911.0616,353.8351 C -1915.8708,371.74046 -1929.3261,366.78279 -1933.489,361.85957 C -1929.9946,358.80888 -1919.4111,359.91194 -1923.4069,354.86388 z"
             style="opacity:1;fill:#e20909;fill-opacity:1;stroke:#000000;stroke-width:3;stroke-miterlimit:4;stroke-dasharray:none;stroke-opacity:1" />
        </g>
        <g
           id="g19626"
           transform="matrix(0.44,0,0,0.44,1353.7889,205.51467)" />
        <g
           id="g19636"
           transform="matrix(0.44,0,0,0.44,1353.7889,205.51467)">
          <path
             sodipodi:nodetypes="cccc"
             id="path19638"
             d="M -1742.1359,459.38792 L -1744.3992,473.37932 C -1749.3007,467.72844 -1753.3998,476.52197 -1757.9791,476.67142 C -1763.9033,468.37853 -1754.0825,457.49611 -1742.1359,459.38792 z"
             style="opacity:1;fill:#e20909;fill-opacity:1;stroke:#000000;stroke-width:3;stroke-miterlimit:4;stroke-dasharray:none;stroke-opacity:1" />
          <path
             sodipodi:nodetypes="cccc"
             id="path19640"
             d="M -1739.4611,494.9837 C -1739.3758,490.46655 -1740.2095,485.84728 -1745.0165,480.78654 C -1754.1296,483.4709 -1759.7111,490.41292 -1750.9834,500.95062 C -1747.9555,499.34449 -1746.4348,489.92361 -1739.4611,494.9837 z"
             style="opacity:1;fill:#e20909;fill-opacity:1;stroke:#000000;stroke-width:3;stroke-miterlimit:4;stroke-dasharray:none;stroke-opacity:1" />
          <path
             sodipodi:nodetypes="cccc"
             id="path19642"
             d="M -1721.9718,493.33765 C -1715.5779,487.65302 -1712.3955,492.13853 -1709.215,496.62975 C -1714.001,500.27491 -1714.1787,505.64016 -1711.684,512.47296 C -1725.5105,510.17915 -1723.7993,499.40035 -1721.9718,493.33765 z"
             style="opacity:1;fill:#e20909;fill-opacity:1;stroke:#000000;stroke-width:3;stroke-miterlimit:4;stroke-dasharray:none;stroke-opacity:1" />
          <path
             sodipodi:nodetypes="cccc"
             id="path19644"
             d="M -1688.2278,481.81532 C -1689.3836,486.42515 -1689.2654,490.71646 -1688.2278,494.77794 C -1697.1211,496.49777 -1701.8508,489.43704 -1702.2193,484.6959 C -1698.5123,480.19988 -1695.2256,478.63277 -1688.2278,481.81532 z"
             style="opacity:1;fill:#e20909;fill-opacity:1;stroke:#000000;stroke-width:3;stroke-miterlimit:4;stroke-dasharray:none;stroke-opacity:1" />
        </g>
        <g
           id="g19646"
           transform="matrix(0.44,0,0,0.44,1353.7889,205.51467)">
          <path
             style="opacity:1;fill:#e20909;fill-opacity:1;stroke:#000000;stroke-width:3;stroke-miterlimit:4;stroke-dasharray:none;stroke-opacity:1"
             d="M -1807.179,161.61985 L -1810.9576,153.59021 L -1816.3894,157.1327 L -1816.1533,161.61985 L -1807.179,161.61985 z"
             id="path19648" />
          <path
             id="path19650"
             d="M -1823.2382,140.83725 L -1816.3894,140.36492 L -1817.0979,145.3244 L -1823.0021,148.15839 L -1823.2382,140.83725 z"
             style="opacity:1;fill:#e20909;fill-opacity:1;stroke:#000000;stroke-width:3;stroke-miterlimit:4;stroke-dasharray:none;stroke-opacity:1" />
          <path
             sodipodi:nodetypes="csccccccccccccccscccccccccccccscsscscscccccscccccc"
             id="path19652"
             d="M -1789.0408,133.00808 C -1788.3881,128.82079 -1803.1729,130.03887 -1808.8457,135.51214 C -1811.6939,138.26018 -1826.8155,144.04947 -1832.5205,135.96743 L -1833.4311,126.63409 C -1836.6647,123.51217 -1839.9443,120.42559 -1835.7075,112.74791 L -1820.2278,107.2845 L -1820.2278,97.951165 C -1814.6554,95.874361 -1808.1889,95.055776 -1803.1546,90.211327 C -1799.0384,86.907045 -1793.3827,85.398697 -1785.6262,86.341408 C -1775.2133,88.474656 -1757.9006,85.673271 -1752.7428,97.401853 C -1757.665,100.14546 -1766.6764,96.868945 -1767.131,106.3138 C -1764.3003,95.934 -1748.3762,101.10017 -1737.9127,98.539141 C -1735.2669,101.19252 -1744.9687,107.76533 -1756.2603,109.10564 C -1737.5742,106.90558 -1744.2979,117.47315 -1741.6912,123.21946 C -1738.46,125.84287 -1737.4644,132.29867 -1726.2115,121.17068 C -1729.8295,126.5361 -1725.5939,136.60067 -1740.553,137.10564 C -1731.9381,138.06286 -1731.588,152.21507 -1731.9026,153.95117 C -1732.887,159.38296 -1720.6607,173.58132 -1716.4229,165.10564 C -1723.8568,175.53659 -1729.1577,172.45828 -1734.862,171.93491 C -1716.3397,185.1112 -1747.6784,216.81711 -1727.1221,226.56906 C -1732.6347,227.72027 -1736.9819,232.4723 -1744.8782,221.33329 C -1741.8848,227.71356 -1735.4999,232.49786 -1742.1465,243.41459 C -1751.1027,260.66299 -1736.1436,256.13386 -1730.5368,255.47964 C -1731.729,260.24667 -1759.62,280.16704 -1756.488,235.67476 C -1758.8624,251.30467 -1753.9921,265.66144 -1766.7319,275.51216 C -1776.4575,282.82965 -1772.1228,287.33506 -1766.9595,291.67476 C -1799.0688,286.90053 -1785.5006,264.83465 -1784.0327,248.87801 C -1785.7605,261.32343 -1789.6243,272.84004 -1801.1059,276.42273 C -1816.1146,284.02747 -1806.4765,299.03785 -1801.7888,306.24387 C -1807.9482,309.69539 -1837.5995,293.05162 -1818.4067,261.62597 C -1832.501,279.53631 -1835.0654,300.8674 -1854.2997,303.14926 C -1876.1022,305.73578 -1890.2868,285.63464 -1866.8945,275.7398 C -1873.3912,284.02605 -1870.8826,287.22144 -1865.301,286.89427 C -1857.7583,286.45214 -1849.8025,280.21625 -1849.8213,269.59345 C -1849.8663,244.1917 -1837.3943,245.27392 -1830.4717,243.41459 C -1863.1023,246.75714 -1854.2745,279.21257 -1894.4392,264.35768 C -1910.9478,258.25198 -1912.4974,242.67685 -1901.4961,226.79671 C -1899.4399,236.40538 -1901.2466,257.37662 -1881.6912,241.8211 C -1866.8094,229.98325 -1855.1659,221.94151 -1838.8945,222.01622 C -1859.2716,222.1099 -1883.9748,225.616 -1881.236,198.56906 C -1860.7285,202.65415 -1852.6704,199.15873 -1838.2116,198.56906 C -1866.6877,200.1319 -1872.0228,169.81372 -1845.7238,164.19507 C -1861.3981,184.92688 -1849.6259,192.86097 -1821.8213,181.49589 C -1821.8213,181.49589 -1811.3181,181.08264 -1808.3904,183.77231 C -1800.9586,190.59997 -1781.2273,166.48341 -1782.6668,163.2845 C -1800.0701,184.96106 -1801.0975,176.04896 -1810.4392,178.08125 C -1815.5524,174.5367 -1816.6084,170.07528 -1816.1303,162.37394 C -1808.6015,164.94082 -1803.5445,163.80001 -1798.3742,162.82922 C -1793.5921,158.76233 -1789.663,154.52484 -1787.9026,149.85361 C -1787.5143,144.23843 -1787.617,138.62326 -1789.0408,133.00808 z"
             style="opacity:1;fill:#e20909;fill-opacity:1;stroke:#000000;stroke-width:3;stroke-miterlimit:4;stroke-dasharray:none;stroke-opacity:1" />
        </g>
        <path
           d="M 555.56171,252.79403 C 556.30971,251.36403 562.20571,251.74683 562.16171,251.95803 C 563.92171,252.53003 564.05371,253.74443 564.36171,254.88843 L 564.58171,256.24803 L 563.83371,255.41203 C 563.21771,256.00163 562.33771,256.01923 561.54571,256.14243 L 560.62171,256.24803 C 559.43371,255.40763 558.86171,254.23283 558.42171,253.00523 C 557.14571,253.00523 556.44171,252.88203 555.56171,252.79403 L 555.56171,252.79403 z"
           style="fill:#000000;stroke:#000000;stroke-width:1.32000005"
           id="path19654" />
      </g>
      <g
         id="g19656"
         inkscape:label="Meubles"
         transform="translate(-484.61116,-242.31771)" />
      <g
         id="g19658"
         inkscape:label="Reflet final"
         transform="translate(-484.61116,-242.31771)" />
      <g
         id="g19660"
         inkscape:label="Contour final"
         transform="translate(-484.61116,-242.31771)" />
    </g>
  </g>
  <g
     inkscape:groupmode="layer"
     id="layer2"
     inkscape:label="Reflet final"
     sodipodi:insensitive="true"
     style="display:inline">
    <path
       sodipodi:nodetypes="cccccc"
       d="M 300.00001,658.5 C 300.00001,658.5 598.50001,546.17969 598.50001,260.72817 C 598.50001,-24.723334 598.50001,2.1764865 598.50001,2.1764865 L 1.5,2.1764865 L 1.5,260.72817 C 1.5,546.17969 300.00001,658.5 300.00001,658.5 z"
       style="opacity:1;fill:url(#radialGradient3163);fill-opacity:1;fill-rule:evenodd;stroke:none;stroke-width:1px;stroke-linecap:butt;stroke-linejoin:miter;stroke-opacity:1"
       id="path2875"
       inkscape:export-xdpi="144"
       inkscape:export-ydpi="144" />
  </g>
  <g
     inkscape:groupmode="layer"
     id="layer1"
     inkscape:label="Contour final"
     style="display:inline"
     sodipodi:insensitive="true">
    <path
       sodipodi:nodetypes="cccccc"
       d="M 299.99999,658.50028 C 299.99999,658.50028 1.5,546.17992 1.5,260.72828 C 1.5,-24.723336 1.5,2.1764957 1.5,2.1764957 L 598.49999,2.1764957 L 598.49999,260.72828 C 598.49999,546.17992 299.99999,658.50028 299.99999,658.50028 z"
       style="opacity:1;fill:none;fill-opacity:1;fill-rule:evenodd;stroke:#000000;stroke-width:3.00000048;stroke-linecap:butt;stroke-linejoin:miter;stroke-miterlimit:4;stroke-dasharray:none;stroke-opacity:1"
       id="path1411"
       inkscape:export-xdpi="144"
       inkscape:export-ydpi="144" />
  </g>
</svg>
